<svg width="1153" height="344" viewBox="0 0 1153 344" fill="none" xmlns="http://www.w3.org/2000/svg">
<path d="M225.135 225.457H119.431V118.791H225.135V225.457ZM296.737 118.791V83.4573H261.672V48.9787H225.135V83.4573H190.572V48.9787H154.035V83.4573H119.431V47.7773H82.8927V83.4573H48.0708V118.791H82.8927V154.341H47.6219V189.675H82.8927V225.457H47.9708V260.791H82.8927V296.24H119.431V260.791H154.035V297.441H190.572V260.791H225.135V297.441H261.672V260.791H296.637V225.457H261.672V189.675H296.288V154.341H261.672V118.791H296.737Z" fill="white"/>
<path d="M381.8 221V122.072H442.28C447.368 122.072 451.976 123.08 456.104 125.096C460.232 127.112 463.496 129.944 465.896 133.592C468.392 137.24 469.64 141.512 469.64 146.408C469.64 150.728 468.872 154.424 467.336 157.496C465.896 160.568 463.928 163.064 461.432 164.984C459.032 166.904 456.296 168.344 453.224 169.304V169.88C456.776 170.648 459.992 172.04 462.872 174.056C465.752 175.976 468.008 178.616 469.64 181.976C471.368 185.336 472.232 189.416 472.232 194.216C472.232 199.88 470.888 204.728 468.2 208.76C465.512 212.696 461.96 215.72 457.544 217.832C453.128 219.944 448.184 221 442.712 221H381.8ZM407.576 201.128H435.656C438.728 201.128 441.176 200.216 443 198.392C444.92 196.568 445.88 193.784 445.88 190.04C445.88 188.024 445.448 186.248 444.584 184.712C443.816 183.08 442.616 181.832 440.984 180.968C439.448 180.104 437.528 179.672 435.224 179.672H407.576V201.128ZM407.576 161.384H433.352C435.464 161.384 437.24 160.952 438.68 160.088C440.216 159.224 441.368 158.024 442.136 156.488C443 154.952 443.432 153.128 443.432 151.016C443.432 147.944 442.52 145.544 440.696 143.816C438.872 142.088 436.568 141.224 433.784 141.224H407.576V161.384ZM489.385 221V122.072H571.033V142.232H515.161V160.808H563.977V180.536H515.161V200.84H572.041V221H489.385ZM633.238 221V122.072H690.694C697.99 122.072 704.086 123.464 708.982 126.248C713.878 128.936 717.526 132.68 719.926 137.48C722.422 142.184 723.67 147.464 723.67 153.32C723.67 159.656 722.182 165.32 719.206 170.312C716.326 175.208 712.246 179.048 706.966 181.832L726.838 221H698.038L681.622 186.152H659.014V221H633.238ZM659.014 167H685.654C689.206 167 692.038 165.848 694.15 163.544C696.358 161.144 697.462 157.976 697.462 154.04C697.462 151.448 696.982 149.24 696.022 147.416C695.062 145.592 693.718 144.2 691.99 143.24C690.262 142.184 688.15 141.656 685.654 141.656H659.014V167ZM741.526 221V122.072H823.174V142.232H767.302V160.808H816.118V180.536H767.302V200.84H824.182V221H741.526ZM866.693 221V143.24H834.581V122.072H924.581V143.24H892.469V221H866.693ZM939.097 221V122.072H996.553C1003.85 122.072 1009.94 123.464 1014.84 126.248C1019.74 128.936 1023.38 132.68 1025.78 137.48C1028.28 142.184 1029.53 147.464 1029.53 153.32C1029.53 159.656 1028.04 165.32 1025.06 170.312C1022.18 175.208 1018.1 179.048 1012.82 181.832L1032.7 221H1003.9L987.481 186.152H964.873V221H939.097ZM964.873 167H991.513C995.065 167 997.897 165.848 1000.01 163.544C1002.22 161.144 1003.32 157.976 1003.32 154.04C1003.32 151.448 1002.84 149.24 1001.88 147.416C1000.92 145.592 999.577 144.2 997.849 143.24C996.121 142.184 994.009 141.656 991.513 141.656H964.873V167ZM1094.34 222.728C1083.49 222.728 1074.18 220.856 1066.4 217.112C1058.72 213.272 1052.82 207.56 1048.69 199.976C1044.56 192.392 1042.5 182.888 1042.5 171.464C1042.5 160.04 1044.56 150.584 1048.69 143.096C1052.82 135.512 1058.72 129.848 1066.4 126.104C1074.18 122.264 1083.49 120.344 1094.34 120.344C1105.18 120.344 1114.45 122.264 1122.13 126.104C1129.9 129.848 1135.86 135.512 1139.98 143.096C1144.11 150.584 1146.18 160.04 1146.18 171.464C1146.18 182.888 1144.11 192.392 1139.98 199.976C1135.86 207.56 1129.9 213.272 1122.13 217.112C1114.45 220.856 1105.18 222.728 1094.34 222.728ZM1094.34 202.568C1098.46 202.568 1102.11 201.944 1105.28 200.696C1108.45 199.448 1111.09 197.624 1113.2 195.224C1115.41 192.824 1117.04 189.896 1118.1 186.44C1119.15 182.984 1119.68 179.096 1119.68 174.776V168.44C1119.68 164.024 1119.15 160.088 1118.1 156.632C1117.04 153.176 1115.41 150.248 1113.2 147.848C1111.09 145.448 1108.45 143.624 1105.28 142.376C1102.11 141.128 1098.46 140.504 1094.34 140.504C1090.11 140.504 1086.42 141.128 1083.25 142.376C1080.08 143.624 1077.44 145.448 1075.33 147.848C1073.22 150.248 1071.63 153.176 1070.58 156.632C1069.52 160.088 1068.99 164.024 1068.99 168.44V174.776C1068.99 179.096 1069.52 182.984 1070.58 186.44C1071.63 189.896 1073.22 192.824 1075.33 195.224C1077.44 197.624 1080.08 199.448 1083.25 200.696C1086.42 201.944 1090.11 202.568 1094.34 202.568Z" fill="white"/>
<path d="M578.984 227.912L607.208 115.016H622.472L594.248 227.912H578.984Z" fill="#E20101"/>
</svg>
