<svg width="526" height="526" viewBox="0 0 526 526" fill="none" xmlns="http://www.w3.org/2000/svg">
<path d="M474.61 271.75C477.383 279.598 483.716 285.664 491.676 288.102C499.633 290.536 508.278 289.055 514.969 284.106C521.66 279.153 525.61 271.325 525.61 263.001C525.61 254.677 521.661 246.849 514.969 241.896C508.278 236.947 499.633 235.466 491.676 237.9C483.715 240.337 477.383 246.404 474.61 254.252H420.501V179.123L441.622 158.002H457.11C459.883 165.85 466.216 171.916 474.176 174.354C482.133 176.787 490.778 175.307 497.469 170.358C504.16 165.405 508.11 157.577 508.11 149.253C508.11 140.929 504.161 133.101 497.469 128.148C490.778 123.199 482.133 121.718 474.176 124.152C466.215 126.589 459.883 132.656 457.11 140.504H438.001C435.681 140.504 433.454 141.425 431.813 143.066L410.129 164.75L359.25 137.809V88.0041H387.109C389.883 95.8518 396.215 101.918 404.176 104.356C412.133 106.79 420.778 105.309 427.469 100.36C434.16 95.4069 438.109 87.579 438.109 79.255C438.109 70.931 434.16 63.103 427.469 58.15C420.777 53.2008 412.133 51.7203 404.176 54.1539C396.215 56.5914 389.882 62.6578 387.109 70.5059H350.5C345.668 70.5059 341.75 74.4239 341.75 79.2559V128.545L271.75 91.5059V51.3969C279.598 48.6235 285.665 42.2914 288.103 34.3309C290.536 26.3739 289.056 17.7289 284.106 11.0379C279.153 4.34651 271.325 0.396912 263.001 0.396912C254.677 0.396912 246.849 4.34611 241.896 11.0379C236.947 17.7293 235.467 26.3739 237.9 34.3309C240.338 42.2918 246.404 48.6239 254.252 51.3969V91.5059L184.252 128.561V79.2559C184.252 76.9356 183.33 74.709 181.69 73.0684C180.049 71.4278 177.823 70.5059 175.502 70.5059H138.893C136.12 62.6582 129.788 56.5919 121.827 54.1539C113.87 51.7203 105.225 53.2008 98.5343 58.15C91.8429 63.1031 87.8933 70.931 87.8933 79.255C87.8933 87.579 91.8425 95.407 98.5343 100.36C105.226 105.309 113.87 106.79 121.827 104.356C129.788 101.919 136.12 95.8522 138.893 88.0041H166.752V137.809L115.869 164.75L94.1853 143.066H94.1892C92.5486 141.426 90.322 140.504 88.0017 140.504H68.8927C66.1193 132.656 59.7872 126.59 51.8267 124.152C43.8697 121.718 35.2247 123.198 28.5337 128.148C21.8423 133.101 17.8927 140.929 17.8927 149.253C17.8927 157.577 21.8419 165.405 28.5337 170.358C35.2251 175.307 43.8697 176.787 51.8267 174.354C59.7876 171.916 66.1197 165.85 68.8927 158.002H84.3807L105.502 179.123V254.252H51.3927C48.6193 246.404 42.2872 240.338 34.3267 237.9C26.3697 235.466 17.7247 236.947 11.0337 241.896C4.3423 246.849 0.3927 254.677 0.3927 263.001C0.3927 271.325 4.3419 279.153 11.0337 284.106C17.7251 289.055 26.3697 290.536 34.3267 288.102C42.2876 285.664 48.6197 279.598 51.3927 271.75H105.502V346.879L84.3807 368H68.8927C66.1193 360.152 59.7872 354.086 51.8267 351.648C43.8697 349.214 35.2247 350.695 28.5337 355.644C21.8423 360.597 17.8927 368.425 17.8927 376.749C17.8927 385.073 21.8419 392.901 28.5337 397.854C35.2251 402.803 43.8697 404.284 51.8267 401.85C59.7876 399.413 66.1197 393.346 68.8927 385.498H88.0017C90.322 385.498 92.5486 384.576 94.1892 382.936L115.873 361.252L166.752 388.193V437.998H138.893C136.12 430.15 129.788 424.084 121.827 421.646C113.87 419.212 105.225 420.693 98.5342 425.642C91.8428 430.595 87.8932 438.423 87.8932 446.747C87.8932 455.071 91.8424 462.899 98.5342 467.852C105.226 472.801 113.87 474.282 121.827 471.848C129.788 469.41 136.12 463.344 138.893 455.496H175.502C177.822 455.496 180.049 454.574 181.69 452.933C183.33 451.293 184.252 449.066 184.252 446.746V397.457L254.252 434.496V474.59C246.404 477.363 240.338 483.695 237.9 491.652C235.467 499.613 236.947 508.257 241.896 514.949C246.849 521.64 254.677 525.586 263.001 525.586C271.325 525.586 279.153 521.641 284.106 514.949C289.055 508.258 290.536 499.613 288.102 491.652C285.665 483.695 279.598 477.363 271.75 474.59V434.496L341.75 397.441V446.746C341.75 449.066 342.672 451.293 344.313 452.933C345.954 454.574 348.18 455.496 350.5 455.496H387.109C389.883 463.344 396.215 469.41 404.175 471.848C412.132 474.282 420.777 472.801 427.468 467.852C434.16 462.899 438.109 455.071 438.109 446.747C438.109 438.423 434.16 430.595 427.468 425.642C420.777 420.693 412.132 419.212 404.175 421.646C396.215 424.083 389.882 430.15 387.109 437.998H359.25V388.193L410.133 361.252L431.817 382.936H431.813C433.454 384.576 435.681 385.498 438.001 385.498H457.11C459.883 393.346 466.216 399.412 474.176 401.85C482.133 404.284 490.778 402.803 497.469 397.854C504.16 392.901 508.11 385.073 508.11 376.749C508.11 368.425 504.161 360.597 497.469 355.644C490.778 350.695 482.133 349.214 474.176 351.648C466.215 354.086 459.883 360.152 457.11 368H441.622L420.501 346.879V271.75H474.61ZM499.251 254.25C502.79 254.25 505.982 256.383 507.333 259.652C508.689 262.922 507.942 266.684 505.438 269.188C502.935 271.691 499.173 272.438 495.903 271.082C492.634 269.73 490.501 266.539 490.501 263C490.501 258.168 494.419 254.25 499.251 254.25ZM481.751 140.5C485.29 140.5 488.482 142.633 489.833 145.902C491.189 149.172 490.442 152.934 487.938 155.438C485.435 157.942 481.673 158.688 478.403 157.332C475.134 155.98 473.001 152.789 473.001 149.25C473.001 144.418 476.919 140.5 481.751 140.5ZM411.751 70.5C415.29 70.5 418.482 72.6328 419.833 75.9023C421.189 79.1718 420.442 82.9335 417.939 85.4375C415.435 87.9415 411.673 88.6875 408.403 87.332C405.134 85.9804 403.001 82.789 403.001 79.25C403.001 74.418 406.919 70.5 411.751 70.5ZM114.251 88C110.712 88 107.52 85.8672 106.169 82.5977C104.813 79.3282 105.56 75.5665 108.063 73.0625C110.567 70.5585 114.329 69.8125 117.599 71.168C120.868 72.5196 123.001 75.711 123.001 79.25C123.001 81.5703 122.079 83.7969 120.438 85.4375C118.798 87.0781 116.571 88 114.251 88ZM44.251 158C40.7119 158 37.5205 155.867 36.169 152.598C34.8135 149.328 35.5596 145.567 38.0635 143.063C40.5674 140.559 44.3291 139.813 47.5987 141.168C50.8682 142.52 53.001 145.711 53.001 149.25C53.001 151.57 52.0791 153.797 50.4385 155.438C48.7979 157.078 46.5713 158 44.251 158ZM26.751 271.75C23.2119 271.75 20.0205 269.617 18.669 266.348C17.3135 263.078 18.0596 259.316 20.5635 256.812C23.0674 254.309 26.8291 253.563 30.0987 254.918C33.3682 256.27 35.501 259.461 35.501 263C35.501 265.32 34.5791 267.547 32.9385 269.188C31.2979 270.828 29.0713 271.75 26.751 271.75ZM44.251 385.5C40.7119 385.5 37.5205 383.367 36.169 380.098C34.8135 376.828 35.5596 373.066 38.0635 370.562C40.5674 368.059 44.3291 367.312 47.5987 368.668C50.8682 370.02 53.001 373.211 53.001 376.75C53.001 379.07 52.0791 381.297 50.4385 382.938C48.7979 384.578 46.5713 385.5 44.251 385.5ZM114.251 455.5C110.712 455.5 107.52 453.367 106.169 450.098C104.813 446.828 105.56 443.066 108.063 440.562C110.567 438.059 114.329 437.312 117.599 438.668C120.868 440.02 123.001 443.211 123.001 446.75C123.001 449.07 122.079 451.297 120.438 452.938C118.798 454.578 116.571 455.5 114.251 455.5ZM411.751 438C415.29 438 418.482 440.133 419.833 443.402C421.189 446.672 420.442 450.434 417.939 452.938C415.435 455.441 411.673 456.188 408.403 454.832C405.134 453.48 403.001 450.289 403.001 446.75C403.001 441.918 406.919 438 411.751 438ZM481.751 368C485.29 368 488.482 370.133 489.833 373.402C491.189 376.672 490.442 380.434 487.938 382.938C485.435 385.441 481.673 386.188 478.403 384.832C475.134 383.48 473.001 380.289 473.001 376.75C473.001 371.918 476.919 368 481.751 368ZM263.001 18C266.54 18 269.732 20.1328 271.083 23.4023C272.439 26.6718 271.692 30.4335 269.189 32.9375C266.685 35.4415 262.923 36.1875 259.653 34.832C256.384 33.4804 254.251 30.289 254.251 26.75C254.251 21.918 258.169 18 263.001 18ZM263.001 508C259.462 508 256.271 505.867 254.919 502.598C253.564 499.328 254.31 495.566 256.814 493.062C259.317 490.559 263.079 489.812 266.349 491.168C269.618 492.52 271.751 495.711 271.751 499.25C271.751 501.57 270.829 503.797 269.189 505.438C267.548 507.078 265.321 508 263.001 508V508ZM403.001 345.25L263.001 419.355L123.001 345.25V180.75L263.001 106.629L403.001 180.75V345.25Z" fill="#212121"/>
<path d="M259.09 123.92L136.59 185.17C133.621 186.654 131.75 189.686 131.75 193.002V333.002C131.731 336.334 133.61 339.389 136.59 340.877L259.09 402.127C261.551 403.358 264.449 403.358 266.91 402.127L389.41 340.877C392.391 339.389 394.27 336.334 394.25 333.002V193.002C394.25 189.686 392.379 186.654 389.41 185.17L266.91 123.92C264.449 122.69 261.551 122.69 259.09 123.92ZM376.75 198.408V327.598L263 384.473L149.25 327.598V198.408L263 141.533L376.75 198.408Z" fill="#212121"/>
<path d="M201.75 260.93L183.375 224.086C181.59 220.399 177.484 218.442 173.496 219.379C169.508 220.32 166.703 223.899 166.75 227.996V306.746H184.25V265.062L202.668 301.91V301.906C204.48 305.543 208.555 307.453 212.508 306.52C216.461 305.59 219.254 302.059 219.25 297.996V219.246H201.75V260.93Z" fill="#212121"/>
<path d="M236.75 228V306.75H254.25V271.75H280.5V254.25H254.25V236.75H289.25V219.25H245.5C240.668 219.25 236.75 223.168 236.75 228Z" fill="#212121"/>
<path d="M324.25 306.75H341.75V236.75H359.25V219.25H306.75V236.75H324.25V306.75Z" fill="#212121"/>
</svg>
